# This file uses centimeters as units for non-parametric coordinates.

v -8.149006 0.400010 2.812813
v -8.049016 0.500000 2.712823
v 8.049016 0.500000 2.712823
v 8.149006 0.400010 2.812813
v -8.049016 0.500000 -2.712823
v -8.149006 0.400010 -2.812813
v 8.049016 0.500000 -2.712823
v 8.149006 0.400010 -2.812813
v -8.059014 -0.500000 2.722821
v -8.149006 -0.410008 2.812813
v 8.059014 -0.500000 2.722821
v 8.149006 -0.410008 2.812813
v -8.059014 -0.500000 -2.722821
v -8.149006 -0.410008 -2.812813
v 8.059014 -0.500000 -2.722821
v 8.149006 -0.410008 -2.812813
vt 0.375000 0.524997
vt 0.376534 0.495557
vt 0.376534 0.254443
vt 0.623466 0.254443
vt 0.623466 0.495557
vt 0.375000 1.000000
vt 0.376380 0.996001
vt 0.625000 1.000000
vt 0.623620 0.996001
vt 0.625000 0.727502
vt 0.623620 0.753999
vt 0.376380 0.753999
vt 0.625000 0.022498
vt 0.375000 0.225002
vt 0.625000 0.524997
vt 0.375000 0.727502
vt 0.875000 0.022498
vt 0.875000 0.225002
vt 0.625000 0.225002
vt 0.125000 0.022498
vt 0.375000 0.022498
vt 0.125000 0.225002
vn -0.707106 0.707107 0.000000
vn -0.707106 0.707107 0.000000
vn -0.707106 0.707107 0.000000
vn -0.707106 0.707107 0.000000
vn 0.000000 0.707106 0.707108
vn 0.000000 0.707106 0.707108
vn 0.000000 0.707106 0.707108
vn 0.000000 0.707106 0.707108
vn 0.707106 0.707107 0.000000
vn 0.707106 0.707107 0.000000
vn 0.707106 0.707107 0.000000
vn 0.707106 0.707107 0.000000
vn 0.000000 0.707105 -0.707108
vn 0.000000 0.707105 -0.707108
vn 0.000000 0.707105 -0.707108
vn 0.000000 0.707105 -0.707108
vn 0.000000 1.000000 0.000000
vn 0.000000 1.000000 0.000000
vn 0.000000 1.000000 0.000000
vn 0.000000 1.000000 0.000000
vn -0.707105 -0.707108 0.000000
vn -0.707105 -0.707108 0.000000
vn -0.707105 -0.707108 0.000000
vn -0.707105 -0.707108 0.000000
vn 0.000000 -0.707108 0.707106
vn 0.000000 -0.707108 0.707106
vn 0.000000 -0.707108 0.707106
vn 0.000000 -0.707108 0.707106
vn 0.707105 -0.707108 0.000000
vn 0.707105 -0.707108 0.000000
vn 0.707105 -0.707108 0.000000
vn 0.707105 -0.707108 0.000000
vn 0.000000 -0.707108 -0.707106
vn 0.000000 -0.707108 -0.707106
vn 0.000000 -0.707108 -0.707106
vn 0.000000 -0.707108 -0.707106
vn 0.000000 -1.000000 0.000000
vn 0.000000 -1.000000 0.000000
vn 0.000000 -1.000000 0.000000
vn 0.000000 -1.000000 0.000000
vn 0.000000 0.000000 1.000000
vn 0.000000 0.000000 1.000000
vn 0.000000 0.000000 1.000000
vn 0.000000 0.000000 1.000000
vn 0.000000 0.000000 -1.000000
vn 0.000000 0.000000 -1.000000
vn 0.000000 0.000000 -1.000000
vn 0.000000 0.000000 -1.000000
vn 1.000000 0.000000 0.000000
vn 1.000000 0.000000 0.000000
vn 1.000000 0.000000 0.000000
vn 1.000000 0.000000 0.000000
vn -1.000000 0.000000 0.000000
vn -1.000000 0.000000 0.000000
vn -1.000000 0.000000 0.000000
vn -1.000000 0.000000 0.000000
s off
f 1/14/1 2/3/2 5/2/3 6/1/4
f 2/3/5 1/14/6 4/19/7 3/4/8
f 3/4/9 4/19/10 8/15/11 7/5/12
f 6/1/13 5/2/14 7/5/15 8/15/16
f 2/3/17 3/4/18 7/5/19 5/2/20
f 9/7/21 10/6/22 14/16/23 13/12/24
f 10/6/25 9/7/26 11/9/27 12/8/28
f 12/8/29 11/9/30 15/11/31 16/10/32
f 13/12/33 14/16/34 16/10/35 15/11/36
f 13/12/37 15/11/38 11/9/39 9/7/40
f 10/21/41 12/13/42 4/19/43 1/14/44
f 6/1/45 8/15/46 16/10/47 14/16/48
f 12/13/49 16/17/50 8/18/51 4/19/52
f 14/20/53 10/21/54 1/14/55 6/22/56
