# This file uses meters as units for non-parametric coordinates.

v -550.000000 -50.000000 -50.000000
v 750.000000 -50.000000 -50.000000
v -550.000000 50.000000 -50.000000
v 750.000000 50.000000 -50.000000
v -550.000000 50.000000 -150.000000
v 750.000000 50.000000 -150.000000
v -550.000000 -50.000000 -150.000000
v 750.000000 -50.000000 -150.000000
v 750.000000 -50.000000 -103.152046
v 750.000000 1250.000000 -103.152046
v -495.336426 -49.999996 -103.152046
v -495.336426 1250.000000 -103.152046
v -496.847961 -50.000000 -1401.537109
v -496.847961 -50.000000 -101.537048
v -496.847961 1250.000000 -1401.537109
v -496.847961 1250.000000 -101.537048
v -550.000000 -50.000000 -1401.537109
v -550.000000 -50.000000 -101.537048
v -550.000000 50.000000 -1401.537109
v -550.000000 50.000000 -101.537048
v -450.000000 50.000000 -1401.537109
v -450.000000 50.000000 -101.537048
v -450.000000 -50.000000 -1401.537109
v -450.000000 -50.000000 -101.537048
vt 0.375000 0.000000
vt 0.625000 0.000000
vt 0.375000 0.250000
vt 0.625000 0.250000
vt 0.375000 0.500000
vt 0.625000 0.500000
vt 0.375000 0.750000
vt 0.625000 0.750000
vt 0.375000 1.000000
vt 0.625000 1.000000
vt 0.875000 0.000000
vt 0.875000 0.250000
vt 0.125000 0.000000
vt 0.125000 0.250000
vt 1.000000 0.000000
vt 1.000000 1.000000
vt 0.042049 0.000000
vt 0.042049 1.000000
vt 0.000000 0.000000
vt 1.000000 0.000000
vt 1.000000 1.000000
vt 0.000000 1.000000
vt 0.375000 0.000000
vt 0.625000 0.000000
vt 0.625000 0.250000
vt 0.375000 0.250000
vt 0.625000 0.500000
vt 0.375000 0.500000
vt 0.625000 0.750000
vt 0.375000 0.750000
vt 0.625000 1.000000
vt 0.375000 1.000000
vt 0.875000 0.000000
vt 0.875000 0.250000
vt 0.125000 0.000000
vt 0.125000 0.250000
vn 0.000000 0.000000 1.000000
vn 0.000000 0.000000 1.000000
vn 0.000000 0.000000 1.000000
vn 0.000000 0.000000 1.000000
vn 0.000000 1.000000 0.000000
vn 0.000000 1.000000 0.000000
vn 0.000000 1.000000 0.000000
vn 0.000000 1.000000 0.000000
vn 0.000000 0.000000 -1.000000
vn 0.000000 0.000000 -1.000000
vn 0.000000 0.000000 -1.000000
vn 0.000000 0.000000 -1.000000
vn 0.000000 -1.000000 0.000000
vn 0.000000 -1.000000 0.000000
vn 0.000000 -1.000000 0.000000
vn 0.000000 -1.000000 0.000000
vn 1.000000 0.000000 0.000000
vn 1.000000 0.000000 0.000000
vn 1.000000 0.000000 0.000000
vn 1.000000 0.000000 0.000000
vn -1.000000 0.000000 0.000000
vn -1.000000 0.000000 0.000000
vn -1.000000 0.000000 0.000000
vn -1.000000 0.000000 0.000000
vn 0.000000 0.000000 1.000000
vn 0.000000 0.000000 1.000000
vn 0.000000 0.000000 1.000000
vn 0.000000 0.000000 1.000000
vn -1.000000 0.000000 0.000000
vn -1.000000 0.000000 0.000000
vn -1.000000 0.000000 0.000000
vn -1.000000 0.000000 0.000000
vn -1.000000 0.000000 0.000000
vn -1.000000 0.000000 0.000000
vn -1.000000 0.000000 0.000000
vn -1.000000 0.000000 0.000000
vn 0.000000 1.000000 0.000000
vn 0.000000 1.000000 0.000000
vn 0.000000 1.000000 0.000000
vn 0.000000 1.000000 0.000000
vn 1.000000 0.000000 0.000000
vn 1.000000 0.000000 0.000000
vn 1.000000 0.000000 0.000000
vn 1.000000 0.000000 0.000000
vn 0.000000 -1.000000 0.000000
vn 0.000000 -1.000000 0.000000
vn 0.000000 -1.000000 0.000000
vn 0.000000 -1.000000 0.000000
vn 0.000000 0.000000 1.000000
vn 0.000000 0.000000 1.000000
vn 0.000000 0.000000 1.000000
vn 0.000000 0.000000 1.000000
vn 0.000000 0.000000 -1.000000
vn 0.000000 0.000000 -1.000000
vn 0.000000 0.000000 -1.000000
vn 0.000000 0.000000 -1.000000
s off
f 1/1/1 2/2/2 4/4/3 3/3/4
f 3/3/5 4/4/6 6/6/7 5/5/8
f 5/5/9 6/6/10 8/8/11 7/7/12
f 7/7/13 8/8/14 2/10/15 1/9/16
f 2/2/17 8/11/18 6/12/19 4/4/20
f 7/13/21 1/1/22 3/3/23 5/14/24
f 12/18/25 11/17/26 9/15/27 10/16/28
f 13/19/29 14/20/30 16/21/31 15/22/32
f 17/23/33 18/24/34 20/25/35 19/26/36
f 19/26/37 20/25/38 22/27/39 21/28/40
f 21/28/41 22/27/42 24/29/43 23/30/44
f 23/30/45 24/29/46 18/31/47 17/32/48
f 18/24/49 24/33/50 22/34/51 20/25/52
f 23/35/53 17/23/54 19/26/55 21/36/56
